<?xml version="1.0" encoding="utf-8"?>
<!-- Generator: Adobe Illustrator 13.0.0, SVG Export Plug-In  -->
<!DOCTYPE svg PUBLIC "-//W3C//DTD SVG 1.1//EN" "http://www.w3.org/Graphics/SVG/1.1/DTD/svg11.dtd" [
	<!ENTITY ns_flows "http://ns.adobe.com/Flows/1.0/">
]>
<svg version="1.1"
	 xmlns="http://www.w3.org/2000/svg" xmlns:xlink="http://www.w3.org/1999/xlink" xmlns:a="http://ns.adobe.com/AdobeSVGViewerExtensions/3.0/"
	 x="0px" y="0px" width="480px" height="375px" viewBox="-19.342 -26.561 480 375" enable-background="new -19.342 -26.561 480 375"
	 xml:space="preserve">
<defs>
</defs>
<polygon fill="#DCB4DC" fill-opacity="0.15" stroke="#000000" stroke-width="4" stroke-linecap="round" points="433.649,153.43 
	157.649,153.43 18.649,292.43 294.649,292.43 "/>
<path fill="none" stroke="#000000" stroke-width="6" stroke-linecap="round" d="M77.478,233.601
	c22.59,1.379,39.041,8.855,43.758,21.992c3.911,10.892-0.876,23.911-12.06,36.84"/>
<line fill="none" stroke="#E12828" stroke-width="7.75" stroke-linecap="round" x1="21.276" y1="289.803" x2="134.01" y2="177.069"/>
<polygon fill="#E12828" points="134.01,177.069 110.351,174.354 157.649,153.43 136.727,200.729 "/>
<line fill="none" stroke="#2828FF" stroke-width="7.75" stroke-linecap="round" x1="18.649" y1="292.43" x2="261.22" y2="292.43"/>
<polygon fill="#2828FF" points="261.22,292.43 246.411,273.782 294.649,292.43 246.411,311.083 "/>
<line fill="none" stroke="#963C96" stroke-width="7.75" stroke-linecap="round" x1="18.649" y1="292.43" x2="18.649" y2="33.43"/>
<polygon fill="#963C96" points="18.649,33.43 0,48.24 18.649,0 37.301,48.24 "/>
<g>
	<path fill="#2828FF" d="M54.174,108.411l-0.308-0.103c-1.121,1.094-2.212,1.887-3.271,2.379s-2.184,0.738-3.373,0.738
		c-1.75,0-3.138-0.461-4.163-1.384s-1.538-2.157-1.538-3.702c0-2.01,0.987-3.592,2.963-4.748s4.974-1.883,8.993-2.184V97.46
		c0-1.271-0.144-2.252-0.431-2.943s-0.656-1.176-1.107-1.456s-0.991-0.42-1.62-0.42s-1.173,0.109-1.63,0.328
		c-0.459,0.219-0.872,0.632-1.241,1.241s-0.643,1.453-0.82,2.533h-3.876V93.01c1.572-0.697,2.902-1.22,3.988-1.569
		c1.088-0.349,2.099-0.605,3.035-0.769s1.836-0.246,2.697-0.246c1.654,0,2.977,0.219,3.969,0.656
		c0.99,0.438,1.732,1.148,2.225,2.133s0.738,2.345,0.738,4.081v7.998c0,1.162,0.034,1.986,0.103,2.471s0.175,0.837,0.317,1.056
		c0.145,0.219,0.328,0.39,0.555,0.513c0.225,0.123,0.639,0.26,1.24,0.41v1.354h-7.629L54.174,108.411z M53.497,101.418
		c-2.119,0.055-3.688,0.451-4.707,1.189s-1.527,1.818-1.527,3.24c0,0.848,0.232,1.494,0.697,1.938s1.107,0.667,1.928,0.667
		c0.629,0,1.224-0.167,1.784-0.502s1.005-0.783,1.333-1.343s0.492-1.155,0.492-1.784V101.418z"/>
	<path d="M82.277,99.121l9.208,9.311l-2.051,2.051l-9.188-9.372l-9.475,9.29l-1.907-1.928l9.372-9.352l-9.331-9.208l2.051-2.051
		l9.29,9.27l9.29-9.27l1.928,1.907L82.277,99.121z"/>
	<path fill="#E12828" d="M100.846,88.806c0-1.299-0.021-2.242-0.062-2.83s-0.127-1.042-0.256-1.364
		c-0.131-0.321-0.328-0.574-0.596-0.759c-0.266-0.185-0.734-0.345-1.404-0.482v-1.354l5.722-0.287h2.522v11.751l0.021,0.021
		c1.217-1.135,2.32-1.931,3.312-2.389s2.007-0.687,3.046-0.687c2.434,0,4.259,0.858,5.476,2.574s1.825,4.283,1.825,7.701
		c0,3.568-0.804,6.248-2.409,8.039c-1.607,1.791-3.982,2.687-7.127,2.687c-2.16,0-4.136-0.39-5.927-1.169l-1.518,1.169l-2.625-0.369
		V88.806z M106.772,104.371c0,1.682,0.29,2.922,0.871,3.722s1.48,1.2,2.697,1.2c1.258,0,2.218-0.66,2.881-1.979
		s0.995-3.203,0.995-5.65c0-2.693-0.294-4.703-0.882-6.029s-1.504-1.989-2.748-1.989c-0.602,0-1.196,0.157-1.784,0.472
		s-1.073,0.762-1.456,1.343s-0.574,1.22-0.574,1.917V104.371z"/>
</g>
<g>
	<path d="M199.206,233.917h-3.158v-38.166h3.158V233.917z"/>
	<path fill="#2828FF" d="M220.563,222.411l-0.308-0.102c-1.121,1.094-2.212,1.887-3.271,2.379s-2.184,0.738-3.373,0.738
		c-1.75,0-3.138-0.462-4.163-1.385s-1.538-2.156-1.538-3.701c0-2.01,0.987-3.593,2.963-4.748s4.974-1.883,8.993-2.184v-1.949
		c0-1.271-0.144-2.252-0.431-2.942s-0.656-1.176-1.107-1.456s-0.991-0.42-1.62-0.42s-1.173,0.109-1.63,0.328
		c-0.459,0.219-0.872,0.632-1.241,1.24s-0.643,1.453-0.82,2.533h-3.876v-3.732c1.572-0.697,2.902-1.221,3.988-1.569
		c1.088-0.349,2.099-0.604,3.035-0.769s1.836-0.246,2.697-0.246c1.654,0,2.977,0.219,3.969,0.656
		c0.99,0.438,1.732,1.148,2.225,2.133s0.738,2.344,0.738,4.08v7.998c0,1.162,0.034,1.986,0.103,2.472s0.175,0.837,0.317,1.056
		c0.145,0.219,0.328,0.391,0.555,0.514c0.225,0.123,0.639,0.26,1.24,0.41v1.354h-7.629L220.563,222.411z M219.886,215.418
		c-2.119,0.055-3.688,0.451-4.707,1.189s-1.527,1.818-1.527,3.24c0,0.848,0.232,1.493,0.697,1.938s1.107,0.666,1.928,0.666
		c0.629,0,1.224-0.167,1.784-0.502s1.005-0.783,1.333-1.344s0.492-1.154,0.492-1.783V215.418z"/>
	<path d="M248.667,213.122l9.208,9.311l-2.051,2.051l-9.188-9.373l-9.475,9.291l-1.907-1.928l9.372-9.352l-9.331-9.209l2.051-2.05
		l9.29,9.269l9.29-9.269l1.928,1.908L248.667,213.122z"/>
	<path fill="#E12828" d="M267.234,202.806c0-1.299-0.021-2.242-0.062-2.83s-0.127-1.042-0.256-1.364
		c-0.131-0.321-0.328-0.574-0.596-0.759c-0.266-0.185-0.734-0.345-1.404-0.482v-1.354l5.722-0.287h2.522v11.75l0.021,0.021
		c1.217-1.135,2.32-1.932,3.312-2.39s2.007-0.687,3.046-0.687c2.434,0,4.259,0.857,5.476,2.573s1.825,4.282,1.825,7.7
		c0,3.568-0.804,6.248-2.409,8.039c-1.607,1.791-3.982,2.688-7.127,2.688c-2.16,0-4.136-0.391-5.927-1.17l-1.518,1.17l-2.625-0.369
		V202.806z M273.161,218.372c0,1.682,0.29,2.922,0.871,3.722s1.48,1.2,2.697,1.2c1.258,0,2.218-0.66,2.881-1.979
		s0.995-3.202,0.995-5.649c0-2.693-0.294-4.703-0.882-6.029s-1.504-1.99-2.748-1.99c-0.602,0-1.196,0.158-1.784,0.473
		s-1.073,0.762-1.456,1.343s-0.574,1.22-0.574,1.917V218.372z"/>
	<path d="M299.44,233.917h-3.158v-38.166h3.158V233.917z"/>
</g>
<g>
	<path fill="#2828FF" d="M151.507,331.411l-0.308-0.102c-1.121,1.094-2.212,1.887-3.271,2.379s-2.184,0.738-3.373,0.738
		c-1.75,0-3.138-0.462-4.163-1.385s-1.538-2.156-1.538-3.701c0-2.01,0.987-3.593,2.963-4.748s4.974-1.883,8.993-2.184v-1.949
		c0-1.271-0.144-2.252-0.431-2.942s-0.656-1.176-1.107-1.456s-0.991-0.42-1.62-0.42s-1.173,0.109-1.63,0.328
		c-0.459,0.219-0.872,0.632-1.241,1.24s-0.643,1.453-0.82,2.533h-3.876v-3.732c1.572-0.697,2.902-1.221,3.988-1.569
		c1.088-0.349,2.099-0.604,3.035-0.769s1.836-0.246,2.697-0.246c1.654,0,2.977,0.219,3.969,0.656
		c0.99,0.438,1.732,1.148,2.225,2.133s0.738,2.344,0.738,4.08v7.998c0,1.162,0.034,1.986,0.103,2.472s0.175,0.837,0.317,1.056
		c0.145,0.219,0.328,0.391,0.555,0.514c0.225,0.123,0.639,0.26,1.24,0.41v1.354h-7.629L151.507,331.411z M150.83,324.418
		c-2.119,0.055-3.688,0.451-4.707,1.189s-1.527,1.818-1.527,3.24c0,0.848,0.232,1.493,0.697,1.938s1.107,0.666,1.928,0.666
		c0.629,0,1.224-0.167,1.784-0.502s1.005-0.783,1.333-1.344s0.492-1.154,0.492-1.783V324.418z"/>
</g>
<g>
	<path fill="#E12828" d="M58.884,191.806c0-1.299-0.021-2.242-0.062-2.83s-0.127-1.042-0.256-1.364
		c-0.131-0.321-0.328-0.574-0.596-0.759c-0.266-0.185-0.734-0.345-1.404-0.482v-1.354l5.722-0.287h2.522v11.751l0.021,0.021
		c1.217-1.135,2.32-1.931,3.312-2.389s2.007-0.687,3.046-0.687c2.434,0,4.259,0.858,5.476,2.574s1.825,4.283,1.825,7.7
		c0,3.568-0.804,6.248-2.409,8.039c-1.607,1.791-3.982,2.688-7.127,2.688c-2.16,0-4.136-0.391-5.927-1.17l-1.518,1.17l-2.625-0.369
		V191.806z M64.811,207.372c0,1.682,0.29,2.922,0.871,3.722s1.48,1.2,2.697,1.2c1.258,0,2.218-0.66,2.881-1.979
		s0.995-3.202,0.995-5.649c0-2.694-0.294-4.704-0.882-6.03s-1.504-1.989-2.748-1.989c-0.602,0-1.196,0.157-1.784,0.472
		s-1.073,0.762-1.456,1.343s-0.574,1.22-0.574,1.917V207.372z"/>
</g>
<g>
	<path d="M142.058,254.092c-2.037,0-3.555-0.623-4.553-1.867s-1.497-3.109-1.497-5.598c0-1.354,0.15-3.021,0.451-5.004
		s0.796-4.01,1.486-6.081s1.58-3.91,2.666-5.517c1.088-1.606,2.338-2.844,3.754-3.712c1.414-0.868,2.949-1.302,4.604-1.302
		c3.965,0,5.947,2.516,5.947,7.547c0,1.422-0.161,3.12-0.482,5.096s-0.83,3.988-1.527,6.039s-1.579,3.866-2.646,5.445
		s-2.297,2.799-3.691,3.66S143.671,254.092,142.058,254.092z M150.158,240.495h-9.844c-0.643,2.967-0.964,5.463-0.964,7.486
		c0,1.531,0.232,2.655,0.697,3.373s1.217,1.076,2.256,1.076c1.531,0,2.983-1.028,4.358-3.086
		C148.035,247.287,149.201,244.336,150.158,240.495z M140.807,238.403h9.823c0.643-2.885,0.964-5.365,0.964-7.443
		c0-1.436-0.232-2.51-0.697-3.221s-1.189-1.066-2.174-1.066c-1.6,0-3.08,1.012-4.439,3.035
		C142.922,231.731,141.764,234.629,140.807,238.403z"/>
</g>
</svg>
